<?xml version="1.0" encoding="UTF-8" standalone="no"?>
<!-- Created with Inkscape (http://www.inkscape.org/) -->

<svg
   xmlns:dc="http://purl.org/dc/elements/1.1/"
   xmlns:cc="http://creativecommons.org/ns#"
   xmlns:rdf="http://www.w3.org/1999/02/22-rdf-syntax-ns#"
   xmlns:svg="http://www.w3.org/2000/svg"
   xmlns="http://www.w3.org/2000/svg"
   xmlns:sodipodi="http://sodipodi.sourceforge.net/DTD/sodipodi-0.dtd"
   xmlns:inkscape="http://www.inkscape.org/namespaces/inkscape"
   width="500"
   height="500"
   viewBox="0 0 132.29166 132.29167"
   version="1.1"
   id="svg8"
   inkscape:version="0.92.3 (2405546, 2018-03-11)"
   sodipodi:docname="menu_icon.svg">
  <defs
     id="defs2" />
  <sodipodi:namedview
     id="base"
     pagecolor="#ffffff"
     bordercolor="#666666"
     borderopacity="1.0"
     inkscape:pageopacity="0.0"
     inkscape:pageshadow="2"
     inkscape:zoom="0.7"
     inkscape:cx="129.06085"
     inkscape:cy="367.68817"
     inkscape:document-units="mm"
     inkscape:current-layer="layer1"
     showgrid="false"
     units="px"
     showguides="false"
     inkscape:window-width="1920"
     inkscape:window-height="1046"
     inkscape:window-x="-11"
     inkscape:window-y="-11"
     inkscape:window-maximized="1" />
  <metadata
     id="metadata5">
    <rdf:RDF>
      <cc:Work
         rdf:about="">
        <dc:format>image/svg+xml</dc:format>
        <dc:type
           rdf:resource="http://purl.org/dc/dcmitype/StillImage" />
        <dc:title></dc:title>
      </cc:Work>
    </rdf:RDF>
  </metadata>
  <g
     inkscape:label="Layer 1"
     inkscape:groupmode="layer"
     id="layer1"
     transform="translate(0,-164.70832)">
    <circle
       style="fill:#fcf7f8;fill-opacity:1;stroke:none;stroke-width:0.95249999;stroke-miterlimit:4;stroke-dasharray:none;stroke-opacity:1"
       cx="66.145836"
       cy="230.85416"
       r="65.389877"
       id="path4522" />
    <g
       id="g4617"
       transform="translate(1.1339286,0.56696083)">
      <path
         sodipodi:nodetypes="ccsccsc"
         inkscape:connector-curvature="0"
         id="rect4534-4-8"
         d="m 25.711891,250.83828 h 78.551989 c 0,0 3.52415,-0.0618 3.58462,4.39536 0.0618,4.55272 -3.58462,4.77335 -3.58462,4.77335 H 25.711891 c 0,0 -3.590543,-0.0935 -3.536755,-4.68093 0.05262,-4.4884 3.536755,-4.48778 3.536755,-4.48778 z"
         style="fill:#0b80c3;fill-opacity:1;stroke:none;stroke-width:0.93354625;stroke-miterlimit:4;stroke-dasharray:none;stroke-opacity:1" />
      <path
         sodipodi:nodetypes="ccsccsc"
         inkscape:connector-curvature="0"
         id="rect4534-4-8-6"
         d="m 25.711891,225.70285 h 78.551989 c 0,0 3.52415,-0.0618 3.58462,4.39536 0.0618,4.55272 -3.58462,4.77336 -3.58462,4.77336 H 25.711891 c 0,0 -3.590543,-0.0935 -3.536755,-4.68094 0.05262,-4.4884 3.536755,-4.48778 3.536755,-4.48778 z"
         style="fill:#0b80c3;fill-opacity:1;stroke:none;stroke-width:0.93354625;stroke-miterlimit:4;stroke-dasharray:none;stroke-opacity:1" />
      <path
         sodipodi:nodetypes="ccsccsc"
         inkscape:connector-curvature="0"
         id="rect4534-4-8-6-9"
         d="m 25.711887,200.56744 h 78.551993 c 0,0 3.52415,-0.0618 3.58462,4.39536 0.0618,4.55272 -3.58462,4.77336 -3.58462,4.77336 H 25.711887 c 0,0 -3.590544,-0.0935 -3.536756,-4.68094 0.05262,-4.4884 3.536756,-4.48778 3.536756,-4.48778 z"
         style="fill:#0b80c3;fill-opacity:1;stroke:none;stroke-width:0.93354625;stroke-miterlimit:4;stroke-dasharray:none;stroke-opacity:1" />
    </g>
  </g>
</svg>
